HIERARCHY
ROOT Hips
{
	OFFSET -0.001795 -0.223333 0.028219
	CHANNELS 6 Xposition Yposition Zposition Zrotation Yrotation Xrotation 
	JOINT LeftUpLeg
	{
		OFFSET 0.069520 -0.091406 -0.006815
		CHANNELS 3 Zrotation Yrotation Xrotation
		JOINT LeftLeg
		{
			OFFSET 0.034277 -0.375199 -0.004496
			CHANNELS 3 Zrotation Yrotation Xrotation
			JOINT LeftFoot
			{
				OFFSET -0.013596 -0.397961 -0.043693
				CHANNELS 3 Zrotation Yrotation Xrotation
				JOINT LeftToe
				{
					OFFSET 0.026358 -0.055791 0.119288
					CHANNELS 3 Zrotation Yrotation Xrotation
					End Site
					{
						OFFSET 0.000000 0.000000 0.000000
					}
				}
			}
		}
	}
	JOINT RightUpLeg
	{
		OFFSET -0.067670 -0.090522 -0.004320
		CHANNELS 3 Zrotation Yrotation Xrotation
		JOINT RightLeg
		{
			OFFSET -0.038290 -0.382569 -0.008850
			CHANNELS 3 Zrotation Yrotation Xrotation
			JOINT RightFoot
			{
				OFFSET 0.015774 -0.398415 -0.042312
				CHANNELS 3 Zrotation Yrotation Xrotation
				JOINT RightToe
				{
					OFFSET -0.025372 -0.048144 0.123348
					CHANNELS 3 Zrotation Yrotation Xrotation
					End Site
					{
						OFFSET 0.000000 0.000000 0.000000
					}
				}
			}
		}
	}
	JOINT Spine
	{
		OFFSET -0.002533 0.108963 -0.026696
		CHANNELS 3 Zrotation Yrotation Xrotation
		JOINT Spine1
		{
			OFFSET 0.005487 0.135180 0.001092
			CHANNELS 3 Zrotation Yrotation Xrotation
			JOINT Spine2
			{
				OFFSET 0.001457 0.052922 0.025425
				CHANNELS 3 Zrotation Yrotation Xrotation
				JOINT Neck
				{
					OFFSET -0.002778 0.213870 -0.042857
					CHANNELS 3 Zrotation Yrotation Xrotation
					JOINT Head
					{
						OFFSET 0.005152 0.064970 0.051349
						CHANNELS 3 Zrotation Yrotation Xrotation
						End Site
						{
							OFFSET 0.000000 0.000000 0.000000
						}
					}
				}
				JOINT LeftShoulder
				{
					OFFSET 0.078845 0.121749 -0.034090
					CHANNELS 3 Zrotation Yrotation Xrotation
					JOINT LeftArm
					{
						OFFSET 0.090977 0.030469 -0.008868
						CHANNELS 3 Zrotation Yrotation Xrotation
						JOINT LeftForeArm
						{
							OFFSET 0.259612 -0.012772 -0.027456
							CHANNELS 3 Zrotation Yrotation Xrotation
							JOINT LeftHand
							{
								OFFSET 0.249234 0.008986 -0.001171
								CHANNELS 3 Zrotation Yrotation Xrotation
								End Site
								{
									OFFSET 0.000000 0.000000 0.000000
								}
							}
						}
					}
				}
				JOINT RightShoulder
				{
					OFFSET -0.081759 0.118833 -0.038615
					CHANNELS 3 Zrotation Yrotation Xrotation
					JOINT RightArm
					{
						OFFSET -0.096012 0.032551 -0.009143
						CHANNELS 3 Zrotation Yrotation Xrotation
						JOINT RightForeArm
						{
							OFFSET -0.253742 -0.013329 -0.021401
							CHANNELS 3 Zrotation Yrotation Xrotation
							JOINT RightHand
							{
								OFFSET -0.255298 0.007772 -0.005559
								CHANNELS 3 Zrotation Yrotation Xrotation
								End Site
								{
									OFFSET 0.000000 0.000000 0.000000
								}
							}
						}
					}
				}
			}
		}
	}
}
MOTION
Frames: 16
Frame Time: 0.050000
0.000000 0.591726 0.000000 -2.720383 3.082440 -27.723789 15.605139 1.489735 -54.683002 -15.892213 11.449403 88.998063 25.108983 35.711308 30.592555 0.000000 0.000000 0.000000 -8.711333 0.226968 -50.724768 16.404357 -17.289808 94.256657 -10.481963 -26.047952 -8.323881 0.000000 0.000000 0.000000 -5.770278 -0.497484 39.026637 5.987184 -0.965055 -27.186060 0.395098 1.238532 24.611129 0.660315 1.317504 -19.633964 0.000000 0.000000 0.000000 -36.440775 -17.844838 8.735469 -33.413103 -26.485472 1.749891 18.250482 -36.010325 -4.716958 0.000000 0.000000 0.000000 26.635535 22.787093 12.685920 32.542642 22.570128 0.602328 -36.381847 51.848519 -15.277488 0.000000 0.000000 0.000000 
0.001053 0.591339 0.001225 -3.533927 2.507141 -26.320999 16.638368 2.169338 -56.418755 -15.306982 11.151494 89.928520 22.887024 33.997136 28.669623 0.000000 0.000000 0.000000 -7.258779 1.125944 -52.665118 15.765893 -16.795424 95.190900 -10.365269 -25.753172 -8.139805 0.000000 0.000000 0.000000 -4.767180 -0.730134 38.933128 5.545098 -0.605465 -30.540369 0.586439 0.422618 26.811943 1.251183 0.763201 -20.463080 0.000000 0.000000 0.000000 -36.837252 -18.413670 9.823753 -32.735913 -26.359512 1.287712 21.843860 -36.498167 -5.836599 0.000000 0.000000 0.000000 26.010258 22.061981 12.026144 28.285026 24.098870 0.531694 -44.442441 51.905459 -19.623601 0.000000 0.000000 0.000000 
0.001877 0.594230 0.002037 -3.544295 3.813013 -25.730765 16.070168 1.399057 -56.599797 -15.633378 10.884336 88.956525 22.359752 33.650788 27.805893 0.000000 0.000000 0.000000 -8.056599 0.331954 -52.937911 15.044719 -16.149417 93.919946 -10.494159 -25.672597 -5.877058 0.000000 0.000000 0.000000 -4.385598 -0.969165 37.724230 7.051259 -1.110825 -28.526984 -1.469724 1.300374 24.316566 2.628490 -0.351687 -16.334867 0.000000 0.000000 0.000000 -37.844465 -18.422427 8.937829 -32.938449 -25.471630 1.529870 22.387024 -36.120911 -6.098213 0.000000 0.000000 0.000000 25.567629 21.675046 12.172227 23.894682 25.066458 0.431397 -53.913364 49.922555 -23.661526 0.000000 0.000000 0.000000 
0.002381 0.595098 0.003297 -3.390048 3.753030 -25.476337 15.835959 1.311429 -56.867540 -15.458717 10.817621 89.135961 22.328858 33.483159 28.392928 0.000000 0.000000 0.000000 -7.177322 0.841231 -53.887589 13.947433 -14.956396 94.819037 -10.736065 -26.057846 -4.001434 0.000000 0.000000 0.000000 -4.636355 -0.890707 37.968483 7.083552 -0.940283 -30.717225 -1.746307 1.075822 25.098094 2.623328 -0.317018 -17.202510 0.000000 0.000000 0.000000 -37.962355 -17.286796 8.324998 -33.213413 -25.565764 1.443186 21.648421 -34.770469 -5.560512 0.000000 0.000000 0.000000 23.424075 20.681620 11.123435 21.325217 26.914304 0.474314 -63.480184 46.827520 -26.947458 0.000000 0.000000 0.000000 
0.002460 0.595897 0.004821 -2.907503 3.403225 -25.297205 15.676182 1.395974 -55.937738 -15.492786 10.929363 88.388139 22.953313 34.452797 26.911052 0.000000 0.000000 0.000000 -7.385732 0.869919 -53.751095 14.153029 -14.573528 93.477843 -11.234883 -27.096889 -3.025952 0.000000 0.000000 0.000000 -5.655586 -0.536022 37.997887 7.493337 -1.056921 -30.631519 -1.633618 1.883978 24.257753 2.942929 -0.539837 -16.350307 0.000000 0.000000 0.000000 -38.537964 -17.727661 8.397989 -32.144558 -24.190784 1.150063 21.340318 -33.922544 -5.380778 0.000000 0.000000 0.000000 22.298853 20.922269 11.127896 18.634523 26.509168 0.197370 -73.113156 41.176508 -27.966598 0.000000 0.000000 0.000000 
0.002119 0.595378 0.006145 -3.048504 4.128310 -25.150305 15.740845 1.167736 -56.328008 -16.053589 11.254784 88.328950 23.010134 34.524295 26.876191 0.000000 0.000000 0.000000 -7.943809 0.342366 -53.960549 14.364439 -15.154222 93.299387 -11.604358 -27.762177 -1.980723 0.000000 0.000000 0.000000 -5.336634 -0.721020 37.679191 6.846770 -0.872579 -30.742211 -2.063149 1.436705 24.460767 2.813377 -0.460519 -16.371575 0.000000 0.000000 0.000000 -38.104548 -17.051389 7.891585 -32.528355 -23.765566 1.022300 21.080593 -34.663275 -5.405648 0.000000 0.000000 0.000000 21.266804 20.396759 10.666231 16.883878 27.172789 0.089048 -79.842793 36.938432 -28.006329 0.000000 0.000000 0.000000 
0.001564 0.596105 0.006902 -3.002995 4.243175 -25.056506 15.740793 1.135617 -56.041173 -16.172298 11.265650 87.964205 23.163426 34.838276 26.217862 0.000000 0.000000 0.000000 -8.091382 0.232763 -53.650548 14.523137 -15.216648 92.552159 -11.868190 -28.348967 -1.993636 0.000000 0.000000 0.000000 -5.658737 -0.648661 37.770875 6.610282 -0.799184 -30.928797 -2.193792 1.831531 24.637938 3.084210 -0.591277 -16.405823 0.000000 0.000000 0.000000 -37.344940 -17.108405 7.708644 -32.716955 -23.777647 1.072989 21.486970 -34.897332 -5.597259 0.000000 0.000000 0.000000 20.004620 20.053338 10.343775 16.188636 27.955324 0.080645 -82.370747 33.049075 -25.781416 0.000000 0.000000 0.000000 
0.000932 0.595602 0.007175 -3.025643 4.245773 -24.745878 15.957463 1.243289 -56.427016 -16.311233 11.440995 87.960308 23.155572 34.827493 26.238235 0.000000 0.000000 0.000000 -8.301940 0.118080 -54.050416 15.100759 -15.895404 92.365500 -12.271555 -29.204702 -1.738312 0.000000 0.000000 0.000000 -5.729766 -0.638550 37.937259 6.069231 -0.702242 -30.372887 -2.368651 1.764822 24.112531 3.716627 -1.159382 -15.808629 0.000000 0.000000 0.000000 -37.124314 -17.253872 7.799461 -32.773390 -23.755619 1.103578 23.018825 -35.703634 -6.246863 0.000000 0.000000 0.000000 19.650202 20.190459 10.322348 16.322430 28.065583 0.133907 -82.446002 31.540755 -24.467813 0.000000 0.000000 0.000000 
0.000304 0.595293 0.007097 -3.101367 4.205747 -24.495386 16.273038 1.421328 -56.477762 -16.507764 11.614450 87.666653 23.255413 35.091772 25.573331 0.000000 0.000000 0.000000 -8.492051 0.024418 -54.183807 15.674283 -16.550962 92.204917 -12.357847 -29.537165 -2.380799 0.000000 0.000000 0.000000 -5.797914 -0.626350 38.354082 5.096788 -0.492682 -29.862517 -2.088967 1.514472 23.408827 4.088800 -1.472430 -15.944512 0.000000 0.000000 0.000000 -37.139669 -17.460234 8.041224 -32.933623 -23.483266 1.060872 24.721210 -36.583118 -6.980909 0.000000 0.000000 0.000000 19.830143 20.233857 10.289195 16.756243 27.918857 0.212937 -77.632154 31.038796 -22.174602 0.000000 0.000000 0.000000 
-0.000258 0.594293 0.006977 -3.102302 4.224130 -24.137207 16.744748 1.662915 -56.828183 -17.000236 12.151323 87.402939 23.357817 35.264910 25.316458 0.000000 0.000000 0.000000 -8.597628 -0.036254 -54.203071 16.265222 -17.222616 91.880240 -12.699342 -30.643405 -3.804995 0.000000 0.000000 0.000000 -6.030191 -0.564227 38.554341 4.659362 -0.403092 -29.424552 -2.272506 1.760733 23.290568 5.343850 -2.304610 -16.567946 0.000000 0.000000 0.000000 -37.015400 -17.132599 7.667460 -33.082392 -23.913681 1.241034 25.450558 -37.169779 -7.376620 0.000000 0.000000 0.000000 19.837907 20.410828 10.443458 16.539285 28.226517 0.220749 -72.476024 28.804254 -18.553423 0.000000 0.000000 0.000000 
-0.000898 0.592393 0.006990 -3.049966 4.276727 -24.028782 16.914426 1.737499 -57.245518 -17.230829 12.658603 88.456556 21.797516 34.311201 22.256026 0.000000 0.000000 0.000000 -8.801691 -0.163203 -54.427785 16.950774 -18.103252 91.949714 -13.207374 -31.943586 -4.211593 0.000000 0.000000 0.000000 -6.048529 -0.569022 38.919871 3.859027 -0.208715 -29.252645 -2.224668 1.745065 23.190616 5.712199 -2.614541 -16.455589 0.000000 0.000000 0.000000 -37.554879 -17.677970 8.098196 -32.603044 -23.281617 1.058548 26.047265 -37.851067 -7.738826 0.000000 0.000000 0.000000 19.969378 21.059214 10.791954 15.473097 27.638666 0.062247 -66.778838 26.738449 -15.455033 0.000000 0.000000 0.000000 
-0.001570 0.590855 0.007394 -2.915994 4.389422 -24.326379 17.540507 2.041513 -57.133541 -17.915648 13.596943 89.451006 19.419443 32.305283 18.816588 0.000000 0.000000 0.000000 -9.090708 -0.348797 -54.174038 17.236375 -18.613983 92.421332 -13.118566 -31.986091 -5.037541 0.000000 0.000000 0.000000 -5.931558 -0.630161 39.523038 3.035817 -0.038280 -28.292350 -2.507547 1.991028 22.643351 6.438751 -3.012177 -17.065710 0.000000 0.000000 0.000000 -37.954655 -17.573160 7.832266 -32.501718 -23.209522 1.150663 25.211646 -37.542235 -7.430516 0.000000 0.000000 0.000000 18.460490 21.861388 10.884295 15.050937 27.306626 0.055421 -62.583138 22.935150 -11.968027 0.000000 0.000000 0.000000 
-0.002358 0.588513 0.008050 -2.692265 4.634562 -24.760111 17.798254 2.108137 -57.162092 -18.146292 14.155088 91.074693 16.726923 29.549382 15.364351 0.000000 0.000000 0.000000 -9.186657 -0.463350 -53.913206 17.193411 -18.923079 93.356101 -13.137228 -32.335308 -5.968107 0.000000 0.000000 0.000000 -5.922460 -0.676380 40.338713 2.756132 0.024347 -27.835981 -3.105580 2.426481 22.412820 7.255468 -3.561312 -16.995221 0.000000 0.000000 0.000000 -38.253042 -18.201612 8.008788 -32.389972 -22.589224 1.095494 24.075480 -36.083647 -6.789337 0.000000 0.000000 0.000000 16.799461 23.085307 11.158106 13.562041 27.498009 -0.030750 -58.247468 18.950935 -8.833148 0.000000 0.000000 0.000000 
-0.003210 0.584636 0.008491 -2.324205 4.383032 -25.412987 18.379575 2.541730 -56.820566 -18.366414 14.869106 92.582584 14.548834 26.986222 12.494013 0.000000 0.000000 0.000000 -9.089383 -0.310371 -53.682972 17.234132 -19.104146 94.424367 -13.132994 -32.694291 -6.960070 0.000000 0.000000 0.000000 -5.551956 -0.756973 41.172001 2.042621 0.159352 -26.519522 -3.545575 2.813547 21.574579 7.917619 -4.122531 -16.374785 0.000000 0.000000 0.000000 -38.729850 -18.978188 8.395803 -32.191598 -21.916786 1.045231 23.709141 -34.758526 -6.455167 0.000000 0.000000 0.000000 15.144642 24.596929 11.417850 11.700795 28.132214 -0.086940 -53.762463 15.061004 -6.218852 0.000000 0.000000 0.000000 
-0.003918 0.578663 0.008053 -1.895455 4.685356 -25.858234 18.839145 2.725078 -57.039430 -18.813321 15.642479 93.742785 12.629361 24.393377 10.395627 0.000000 0.000000 0.000000 -9.561121 -0.631603 -53.686667 17.081008 -19.373607 95.934838 -12.664868 -32.158179 -8.892487 0.000000 0.000000 0.000000 -5.131412 -0.943950 42.492385 1.046093 0.447384 -26.159905 -3.640544 2.556818 21.660040 8.220313 -4.373353 -16.630462 0.000000 0.000000 0.000000 -38.905897 -20.358783 9.533061 -32.341230 -22.700435 1.240546 24.200058 -32.631988 -6.183001 0.000000 0.000000 0.000000 12.422996 26.240166 11.330451 9.868661 29.098550 -0.158253 -49.619680 10.768273 -3.884775 0.000000 0.000000 0.000000 
-0.004313 0.572278 0.006251 -1.715325 4.866878 -26.475463 19.434460 3.001239 -57.228715 -18.971770 15.989058 94.643265 10.801517 21.633139 9.285986 0.000000 0.000000 0.000000 -9.539544 -0.667370 -53.582396 16.661131 -19.241431 97.179309 -12.364491 -31.874366 -10.455648 0.000000 0.000000 0.000000 -4.656102 -1.138037 43.278199 0.945836 0.467528 -25.339442 -3.875505 2.766616 21.567338 8.656065 -4.590550 -17.108141 0.000000 0.000000 0.000000 -39.699088 -21.574157 10.339683 -32.003373 -22.925909 1.363807 24.768926 -30.175922 -5.881795 0.000000 0.000000 0.000000 10.912732 27.818237 11.556241 6.873222 29.596120 -0.454797 -45.617200 7.298851 -2.240441 0.000000 0.000000 0.000000 
